<svg aria-hidden="true" style="position: absolute; width: 0; height: 0; overflow: hidden;" version="1.1" xmlns="http://www.w3.org/2000/svg" xmlns:xlink="http://www.w3.org/1999/xlink">
<defs>
<symbol id="feCheck" viewBox="0 0 43 32">
<path d="M5.333 10.667l-5.333 5.333 16 16 26.667-26.667-5.333-5.333-21.333 21.333-10.667-10.667z"></path>
</symbol>
<symbol id="burger" viewBox="0 0 24 24">
<path d="M4 6.5h16a1 1 0 1 0 0-2H4a1 1 0 1 0 0 2Zm16 4.5H4a1 1 0 1 0 0 2h16a1 1 0 1 0 0-2Zm0 6.5H4a1 1 0 1 0 0 2h16a1 1 0 1 0 0-2Z"/>
</symbol>
<symbol id="close-menu" viewBox="0 0 24 24">
<path d="M18.3 5.7a1 1 0 0 0-1.4 0L12 10.6 7.1 5.7A1 1 0 0 0 5.7 7.1l4.9 4.9-4.9 4.9a1 1 0 1 0 1.4 1.4l4.9-4.9 4.9 4.9a1 1 0 0 0 1.4-1.4L13.4 12l4.9-4.9a1 1 0 0 0 0-1.4Z"/>
</symbol>
</defs>
</svg>
