<svg aria-hidden="true" style="position: absolute; width: 0; height: 0; overflow: hidden;" version="1.1" xmlns="http://www.w3.org/2000/svg" xmlns:xlink="http://www.w3.org/1999/xlink">
<defs>
<symbol id="fuel" viewBox="0 0 32 32">
<path d="M6 5c0-0.265 0.105-0.52 0.293-0.707s0.442-0.293 0.707-0.293h10c0.265 0 0.52 0.105 0.707 0.293s0.293 0.442 0.293 0.707v10c0 0.265-0.105 0.52-0.293 0.707s-0.442 0.293-0.707 0.293h-10c-0.265 0-0.52-0.105-0.707-0.293s-0.293-0.442-0.293-0.707v-10z"></path>
<path d="M2 4c0-1.061 0.421-2.078 1.172-2.828s1.768-1.172 2.828-1.172h12c1.061 0 2.078 0.421 2.828 1.172s1.172 1.768 1.172 2.828v16c1.061 0 2.078 0.421 2.828 1.172s1.172 1.768 1.172 2.828v1c0 0.265 0.105 0.52 0.293 0.707s0.442 0.293 0.707 0.293 0.52-0.105 0.707-0.293c0.188-0.188 0.293-0.442 0.293-0.707v-9h-1c-0.265 0-0.52-0.105-0.707-0.293s-0.293-0.442-0.293-0.707v-6.25c0-0.265 0.105-0.52 0.293-0.707s0.442-0.293 0.707-0.293h2.99c-0.022-0.952-0.106-1.788-0.402-2.444-0.158-0.381-0.435-0.702-0.788-0.916-0.368-0.22-0.928-0.39-1.8-0.39-0.265 0-0.52-0.105-0.707-0.293s-0.293-0.442-0.293-0.707 0.105-0.52 0.293-0.707c0.188-0.188 0.442-0.293 0.707-0.293 1.128-0.003 2.069 0.221 2.824 0.672 0.766 0.456 1.268 1.102 1.588 1.814 0.59 1.31 0.588 2.93 0.588 4.162v6.35c0 0.132-0.025 0.262-0.076 0.383s-0.124 0.232-0.217 0.325c-0.093 0.093-0.203 0.167-0.325 0.217s-0.252 0.076-0.383 0.076h-1v9c0 0.796-0.316 1.559-0.879 2.121s-1.326 0.879-2.121 0.879-1.559-0.316-2.121-0.879c-0.563-0.563-0.879-1.326-0.879-2.121v-1c0-0.53-0.211-1.039-0.586-1.414s-0.884-0.586-1.414-0.586v8h1c0.265 0 0.52 0.105 0.707 0.293s0.293 0.442 0.293 0.707-0.105 0.52-0.293 0.707c-0.188 0.188-0.442 0.293-0.707 0.293h-22c-0.265 0-0.52-0.105-0.707-0.293s-0.293-0.442-0.293-0.707 0.105-0.52 0.293-0.707c0.188-0.188 0.442-0.293 0.707-0.293h1v-26zM20 4c0-0.53-0.211-1.039-0.586-1.414s-0.884-0.586-1.414-0.586h-12c-0.53 0-1.039 0.211-1.414 0.586s-0.586 0.884-0.586 1.414v26h16v-26z"></path>
</symbol>
<symbol id="logo" viewBox="0 0 290 32">
<path fill="#475467" style="fill: var(--color1, #475467)" d="M288.838 15.333h-7.697c-0.041-0.475-0.207-0.884-0.501-1.227-0.292-0.343-0.672-0.606-1.135-0.788-0.457-0.192-0.96-0.288-1.517-0.288-0.717 0-1.333 0.131-1.847 0.394-0.516 0.263-0.768 0.636-0.757 1.121-0.011 0.343 0.137 0.662 0.439 0.955 0.311 0.293 0.913 0.52 1.803 0.682l4.727 0.849c2.383 0.434 4.156 1.167 5.318 2.197 1.171 1.020 1.762 2.389 1.773 4.106-0.011 1.657-0.506 3.096-1.485 4.318-0.971 1.212-2.3 2.151-3.985 2.818-1.677 0.656-3.593 0.985-5.743 0.985-3.556 0-6.338-0.727-8.348-2.182-2.001-1.454-3.117-3.374-3.349-5.758h8.303c0.111 0.738 0.476 1.308 1.090 1.712 0.627 0.394 1.414 0.591 2.364 0.591 0.768 0 1.399-0.131 1.894-0.394 0.506-0.263 0.764-0.636 0.772-1.121-0.009-0.445-0.233-0.798-0.666-1.061-0.425-0.263-1.092-0.475-2.001-0.636l-4.119-0.727c-2.374-0.414-4.151-1.202-5.333-2.364s-1.769-2.657-1.758-4.485c-0.011-1.616 0.414-2.985 1.271-4.106 0.868-1.131 2.106-1.99 3.712-2.576 1.617-0.596 3.531-0.894 5.743-0.894 3.364 0 6.016 0.697 7.955 2.091 1.95 1.394 2.974 3.323 3.076 5.788z"></path>
<path fill="#475467" style="fill: var(--color1, #475467)" d="M248.352 25.515l0.060-9.939h1.092l5.636-7.818h9.393l-9.455 12.182h-2.364l-4.363 5.576zM240.836 31.030v-31.030h8.365v31.030h-8.365zM255.2 31.030l-5.333-9.212 5.455-5.939 9.455 15.152h-9.577z"></path>
<path fill="#475467" style="fill: var(--color1, #475467)" d="M225.321 31.454c-2.526 0-4.687-0.5-6.485-1.5-1.798-1.010-3.177-2.414-4.137-4.212-0.96-1.808-1.439-3.904-1.439-6.288s0.479-4.475 1.439-6.273c0.96-1.808 2.338-3.212 4.137-4.212 1.798-1.010 3.959-1.515 6.485-1.515 2.283 0 4.258 0.414 5.924 1.242 1.677 0.818 2.974 1.98 3.893 3.485 0.919 1.495 1.385 3.253 1.395 5.273h-7.759c-0.111-1.222-0.465-2.152-1.060-2.788-0.587-0.646-1.344-0.97-2.272-0.97-0.727 0-1.365 0.212-1.909 0.636-0.546 0.414-0.971 1.045-1.274 1.894-0.303 0.838-0.454 1.894-0.454 3.167s0.151 2.333 0.454 3.182c0.303 0.838 0.727 1.47 1.274 1.894 0.544 0.414 1.182 0.621 1.909 0.621 0.617 0 1.161-0.141 1.636-0.424 0.474-0.293 0.858-0.717 1.152-1.273 0.303-0.566 0.484-1.252 0.544-2.061h7.759c-0.032 2.051-0.501 3.838-1.41 5.364-0.909 1.515-2.197 2.687-3.863 3.515-1.658 0.828-3.637 1.242-5.939 1.242z"></path>
<path fill="#475467" style="fill: var(--color1, #475467)" d="M200.637 20.848v-13.091h8.364v23.273h-7.939v-4.424h-0.243c-0.505 1.485-1.389 2.646-2.651 3.485-1.263 0.828-2.763 1.242-4.5 1.242-1.626 0-3.051-0.374-4.273-1.121-1.212-0.748-2.157-1.778-2.833-3.091-0.667-1.313-1.005-2.818-1.015-4.515v-14.849h8.364v13.091c0.010 1.152 0.303 2.056 0.879 2.712 0.586 0.657 1.404 0.985 2.455 0.985 0.697 0 1.298-0.147 1.803-0.439 0.515-0.303 0.909-0.727 1.182-1.273 0.283-0.556 0.419-1.217 0.409-1.985z"></path>
<path fill="#475467" style="fill: var(--color1, #475467)" d="M166.193 31.030v-23.273h8.121v4.424h0.242c0.424-1.636 1.096-2.833 2.015-3.591 0.929-0.758 2.015-1.136 3.258-1.136 0.364 0 0.722 0.030 1.076 0.091 0.364 0.051 0.712 0.126 1.045 0.227v7.136c-0.414-0.141-0.924-0.247-1.53-0.318s-1.126-0.106-1.561-0.106c-0.818 0-1.556 0.187-2.212 0.561-0.646 0.364-1.156 0.879-1.53 1.545-0.374 0.657-0.561 1.429-0.561 2.318v12.121h-8.364z"></path>
<path fill="#475467" style="fill: var(--color1, #475467)" d="M137.495 6.788v-6.788h26.97v6.788h-9.333v24.243h-8.303v-24.243h-9.333z"></path>
<path fill="#101828" style="fill: var(--color2, #101828)" d="M133.35 0v31.030h-8.364v-31.030h8.364z"></path>
<path fill="#101828" style="fill: var(--color2, #101828)" d="M109.326 31.454c-2.485 0-4.626-0.475-6.424-1.424-1.788-0.96-3.166-2.333-4.136-4.121-0.96-1.798-1.439-3.949-1.439-6.455 0-2.404 0.485-4.505 1.454-6.303s2.338-3.197 4.106-4.197 3.854-1.5 6.258-1.5c1.757 0 3.348 0.273 4.773 0.818s2.641 1.338 3.651 2.379c1.010 1.030 1.788 2.283 2.333 3.758s0.818 3.136 0.818 4.985v1.939h-20.788v-4.606h13.091c-0.010-0.667-0.182-1.253-0.515-1.758-0.323-0.515-0.763-0.914-1.318-1.197-0.546-0.293-1.167-0.439-1.864-0.439-0.677 0-1.298 0.146-1.864 0.439-0.566 0.283-1.020 0.677-1.364 1.182-0.333 0.505-0.51 1.096-0.53 1.773v4.97c0 0.747 0.157 1.414 0.47 2s0.763 1.045 1.348 1.379c0.586 0.333 1.293 0.5 2.121 0.5 0.576 0 1.101-0.081 1.576-0.242 0.485-0.162 0.899-0.394 1.242-0.697 0.343-0.313 0.596-0.687 0.758-1.121h7.636c-0.263 1.616-0.884 3.020-1.864 4.212-0.98 1.182-2.278 2.101-3.894 2.758-1.606 0.646-3.485 0.97-5.636 0.97z"></path>
<path fill="#101828" style="fill: var(--color2, #101828)" d="M95.651 7.758l-7.818 23.273h-9.697l-7.818-23.273h8.788l3.758 15.394h0.242l3.758-15.394h8.788z"></path>
<path fill="#101828" style="fill: var(--color2, #101828)" d="M53.453 31.394c-1.485 0-2.798-0.242-3.939-0.727-1.131-0.495-2.020-1.242-2.667-2.242s-0.97-2.273-0.97-3.818c0-1.273 0.217-2.359 0.652-3.258 0.434-0.909 1.040-1.651 1.818-2.227s1.682-1.015 2.712-1.318c1.040-0.303 2.161-0.5 3.364-0.591 1.303-0.101 2.348-0.222 3.136-0.364 0.798-0.151 1.374-0.359 1.727-0.621 0.353-0.273 0.53-0.631 0.53-1.076v-0.061c0-0.606-0.232-1.071-0.697-1.394s-1.061-0.485-1.788-0.485c-0.798 0-1.449 0.177-1.955 0.53-0.495 0.343-0.793 0.874-0.894 1.591h-7.697c0.101-1.414 0.551-2.717 1.348-3.909 0.808-1.202 1.985-2.162 3.53-2.879 1.545-0.727 3.475-1.091 5.788-1.091 1.667 0 3.162 0.197 4.485 0.591 1.323 0.384 2.449 0.924 3.379 1.621 0.929 0.687 1.636 1.495 2.121 2.424 0.495 0.919 0.742 1.919 0.742 3v15.939h-7.818v-3.273h-0.182c-0.465 0.869-1.030 1.571-1.697 2.106-0.657 0.535-1.409 0.924-2.258 1.167-0.838 0.242-1.763 0.364-2.773 0.364zM56.18 26.121c0.636 0 1.232-0.131 1.788-0.394 0.566-0.263 1.025-0.642 1.379-1.136s0.53-1.096 0.53-1.803v-1.939c-0.222 0.091-0.46 0.177-0.712 0.258-0.243 0.081-0.505 0.157-0.788 0.227-0.273 0.071-0.566 0.136-0.879 0.197-0.303 0.061-0.621 0.116-0.954 0.167-0.646 0.101-1.177 0.268-1.591 0.5-0.404 0.222-0.707 0.5-0.909 0.834-0.192 0.323-0.288 0.687-0.288 1.091 0 0.647 0.227 1.142 0.682 1.485s1.035 0.515 1.742 0.515z"></path>
<path fill="#101828" style="fill: var(--color2, #101828)" d="M28.698 31.030v-23.273h8.121v4.424h0.242c0.424-1.636 1.096-2.833 2.015-3.591 0.929-0.758 2.015-1.136 3.258-1.136 0.364 0 0.722 0.030 1.076 0.091 0.364 0.051 0.712 0.126 1.045 0.227v7.136c-0.414-0.141-0.924-0.247-1.53-0.318s-1.126-0.106-1.561-0.106c-0.818 0-1.555 0.187-2.212 0.561-0.646 0.364-1.156 0.879-1.53 1.545-0.374 0.657-0.561 1.429-0.561 2.318v12.121h-8.364z"></path>
<path fill="#101828" style="fill: var(--color2, #101828)" d="M0 6.788v-6.788h26.97v6.788h-9.333v24.243h-8.303v-24.243h-9.333z"></path>
</symbol>
<symbol id="ac" viewBox="0 0 32 32">
<path d="M25 4c-1.326 0-2.598 0.527-3.536 1.464s-1.464 2.209-1.464 3.536c0 0.265-0.105 0.52-0.293 0.707s-0.442 0.293-0.707 0.293-0.52-0.105-0.707-0.293c-0.188-0.188-0.293-0.442-0.293-0.707 0-1.384 0.411-2.738 1.18-3.889s1.862-2.048 3.142-2.578c1.279-0.53 2.687-0.668 4.044-0.398s2.605 0.937 3.584 1.916c0.979 0.979 1.646 2.226 1.916 3.584s0.132 2.765-0.398 4.044c-0.53 1.279-1.427 2.372-2.578 3.142s-2.504 1.18-3.889 1.18h-24c-0.265 0-0.52-0.105-0.707-0.293s-0.293-0.442-0.293-0.707c0-0.265 0.105-0.52 0.293-0.707s0.442-0.293 0.707-0.293h24c1.326 0 2.598-0.527 3.536-1.464s1.464-2.209 1.464-3.536-0.527-2.598-1.464-3.536c-0.938-0.938-2.209-1.464-3.536-1.464zM11 6c-0.53 0-1.039 0.211-1.414 0.586s-0.586 0.884-0.586 1.414c0 0.265-0.105 0.52-0.293 0.707s-0.442 0.293-0.707 0.293c-0.265 0-0.52-0.105-0.707-0.293s-0.293-0.442-0.293-0.707c0-0.791 0.235-1.564 0.674-2.222s1.064-1.171 1.795-1.473c0.731-0.303 1.535-0.382 2.311-0.228s1.489 0.535 2.048 1.095c0.559 0.559 0.94 1.272 1.095 2.048s0.075 1.58-0.228 2.311c-0.303 0.731-0.815 1.356-1.473 1.795s-1.431 0.674-2.222 0.674h-10c-0.265 0-0.52-0.105-0.707-0.293s-0.293-0.442-0.293-0.707c0-0.265 0.105-0.52 0.293-0.707s0.442-0.293 0.707-0.293h10c0.53 0 1.039-0.211 1.414-0.586s0.586-0.884 0.586-1.414c0-0.53-0.211-1.039-0.586-1.414s-0.884-0.586-1.414-0.586zM0 19c0-0.265 0.105-0.52 0.293-0.707s0.442-0.293 0.707-0.293h20.084c1.187 0 2.347 0.352 3.333 1.011s1.756 1.596 2.21 2.693c0.454 1.096 0.573 2.303 0.341 3.467s-0.803 2.233-1.642 3.072c-0.839 0.839-1.908 1.411-3.072 1.642s-2.37 0.113-3.467-0.341c-1.096-0.454-2.033-1.223-2.693-2.21s-1.011-2.147-1.011-3.333c0-0.265 0.105-0.52 0.293-0.707s0.442-0.293 0.707-0.293c0.265 0 0.52 0.105 0.707 0.293s0.293 0.442 0.293 0.707c0 0.791 0.235 1.564 0.674 2.222s1.064 1.171 1.795 1.473 1.535 0.382 2.311 0.228c0.776-0.154 1.489-0.535 2.048-1.095s0.94-1.272 1.095-2.048c0.154-0.776 0.075-1.58-0.228-2.311s-0.816-1.356-1.473-1.795c-0.658-0.44-1.431-0.674-2.222-0.674h-20.084c-0.265 0-0.52-0.105-0.707-0.293s-0.293-0.442-0.293-0.707z"></path>
</symbol>
<symbol id="automatic" viewBox="0 0 32 32">
<path d="M12 7c0-0.796 0.316-1.559 0.879-2.121s1.326-0.879 2.121-0.879h2c0.796 0 1.559 0.316 2.121 0.879s0.879 1.326 0.879 2.121v2c0 0.796-0.316 1.559-0.879 2.121s-1.326 0.879-2.121 0.879v2h11c0.265 0 0.52 0.105 0.707 0.293s0.293 0.442 0.293 0.707v2c0 0.265-0.105 0.52-0.293 0.707s-0.442 0.293-0.707 0.293-0.52-0.105-0.707-0.293c-0.188-0.188-0.293-0.442-0.293-0.707v-1h-10v1c0 0.265-0.105 0.52-0.293 0.707s-0.442 0.293-0.707 0.293c-0.265 0-0.52-0.105-0.707-0.293s-0.293-0.442-0.293-0.707v-1h-10v1c0 0.265-0.105 0.52-0.293 0.707s-0.442 0.293-0.707 0.293-0.52-0.105-0.707-0.293c-0.188-0.188-0.293-0.442-0.293-0.707v-2c0-0.265 0.105-0.52 0.293-0.707s0.442-0.293 0.707-0.293h11v-2c-0.796 0-1.559-0.316-2.121-0.879s-0.879-1.326-0.879-2.121v-2zM17 10c0.265 0 0.52-0.105 0.707-0.293s0.293-0.442 0.293-0.707v-2c0-0.265-0.105-0.52-0.293-0.707s-0.442-0.293-0.707-0.293h-2c-0.265 0-0.52 0.105-0.707 0.293s-0.293 0.442-0.293 0.707v2c0 0.265 0.105 0.52 0.293 0.707s0.442 0.293 0.707 0.293h2zM0 23c0-0.796 0.316-1.559 0.879-2.121s1.326-0.879 2.121-0.879h2c0.796 0 1.559 0.316 2.121 0.879s0.879 1.326 0.879 2.121v2c0 0.796-0.316 1.559-0.879 2.121s-1.326 0.879-2.121 0.879h-2c-0.796 0-1.559-0.316-2.121-0.879s-0.879-1.326-0.879-2.121v-2zM3 22c-0.265 0-0.52 0.105-0.707 0.293s-0.293 0.442-0.293 0.707v2c0 0.265 0.105 0.52 0.293 0.707s0.442 0.293 0.707 0.293h2c0.265 0 0.52-0.105 0.707-0.293s0.293-0.442 0.293-0.707v-2c0-0.265-0.105-0.52-0.293-0.707s-0.442-0.293-0.707-0.293h-2zM12 23c0-0.796 0.316-1.559 0.879-2.121s1.326-0.879 2.121-0.879h2c0.796 0 1.559 0.316 2.121 0.879s0.879 1.326 0.879 2.121v2c0 0.796-0.316 1.559-0.879 2.121s-1.326 0.879-2.121 0.879h-2c-0.796 0-1.559-0.316-2.121-0.879s-0.879-1.326-0.879-2.121v-2zM15 22c-0.265 0-0.52 0.105-0.707 0.293s-0.293 0.442-0.293 0.707v2c0 0.265 0.105 0.52 0.293 0.707s0.442 0.293 0.707 0.293h2c0.265 0 0.52-0.105 0.707-0.293s0.293-0.442 0.293-0.707v-2c0-0.265-0.105-0.52-0.293-0.707s-0.442-0.293-0.707-0.293h-2zM24 23c0-0.796 0.316-1.559 0.879-2.121s1.326-0.879 2.121-0.879h2c0.796 0 1.559 0.316 2.121 0.879s0.879 1.326 0.879 2.121v2c0 0.796-0.316 1.559-0.879 2.121s-1.326 0.879-2.121 0.879h-2c-0.796 0-1.559-0.316-2.121-0.879s-0.879-1.326-0.879-2.121v-2zM27 22c-0.265 0-0.52 0.105-0.707 0.293s-0.293 0.442-0.293 0.707v2c0 0.265 0.105 0.52 0.293 0.707s0.442 0.293 0.707 0.293h2c0.265 0 0.52-0.105 0.707-0.293s0.293-0.442 0.293-0.707v-2c0-0.265-0.105-0.52-0.293-0.707s-0.442-0.293-0.707-0.293h-2z"></path>
</symbol>
<symbol id="bathroom" viewBox="0 0 38 32">
<path d="M8.235 30c0 0.349-0.104 0.69-0.297 0.98s-0.47 0.517-0.792 0.65c-0.322 0.134-0.677 0.169-1.020 0.101s-0.657-0.236-0.904-0.483c-0.247-0.247-0.415-0.561-0.483-0.904s-0.033-0.697 0.1-1.020c0.134-0.322 0.36-0.598 0.65-0.792s0.631-0.297 0.98-0.297c0.468 0 0.917 0.186 1.248 0.517s0.517 0.78 0.517 1.248zM11.176 23.529c-0.349 0-0.69 0.104-0.98 0.297s-0.516 0.469-0.65 0.792c-0.134 0.322-0.168 0.677-0.1 1.020s0.236 0.657 0.483 0.904c0.247 0.247 0.561 0.415 0.904 0.483s0.697 0.033 1.020-0.101c0.322-0.133 0.598-0.36 0.792-0.65s0.297-0.631 0.297-0.98c0-0.468-0.186-0.917-0.517-1.248s-0.78-0.517-1.248-0.517zM1.765 23.529c-0.349 0-0.69 0.104-0.98 0.297s-0.516 0.469-0.65 0.792c-0.134 0.322-0.169 0.677-0.1 1.020s0.236 0.657 0.483 0.904c0.247 0.247 0.561 0.415 0.904 0.483s0.697 0.033 1.020-0.101c0.322-0.133 0.598-0.36 0.792-0.65s0.297-0.631 0.297-0.98c0-0.468-0.186-0.917-0.517-1.248s-0.78-0.517-1.248-0.517zM6.471 18.824c-0.349 0-0.69 0.104-0.98 0.297s-0.516 0.469-0.65 0.792c-0.134 0.322-0.168 0.677-0.1 1.020s0.236 0.657 0.483 0.904c0.247 0.247 0.561 0.415 0.904 0.483s0.697 0.033 1.020-0.101c0.322-0.133 0.598-0.36 0.792-0.65s0.297-0.631 0.297-0.98c0-0.468-0.186-0.917-0.517-1.248s-0.78-0.517-1.248-0.517zM36.471 1.176c0 0.312-0.124 0.611-0.345 0.832s-0.52 0.345-0.832 0.345h-4.219l-4.096 4.097-3.185 18.646c-0.072 0.426-0.259 0.824-0.542 1.151s-0.65 0.569-1.062 0.7c-0.411 0.132-0.851 0.147-1.271 0.046s-0.804-0.317-1.109-0.623l-14.412-14.412c-0.306-0.306-0.522-0.69-0.623-1.11s-0.086-0.861 0.046-1.272c0.132-0.412 0.375-0.779 0.702-1.062s0.726-0.47 1.153-0.541l18.638-3.187 4.441-4.441c0.109-0.109 0.239-0.196 0.382-0.255s0.296-0.089 0.45-0.089h4.706c0.312 0 0.611 0.124 0.832 0.345s0.345 0.52 0.345 0.832zM24.443 7.322l-17.384 2.972 14.412 14.412 2.972-17.384z"></path>
</symbol>
<symbol id="gas" viewBox="0 0 20 20" xmlns="http://www.w3.org/2000/svg">
<path d="M4.99999 15.8334H8.33332M15 15.8409V15.8334M1.66666 5.00002C1.66666 2.24169 2.24166 1.66669 4.99999 1.66669H15C17.7583 1.66669 18.3333 2.24169 18.3333 5.00002V15C18.3333 17.7584 17.7583 18.3334 15 18.3334H4.99999C2.24166 18.3334 1.66666 17.7584 1.66666 15V5.00002Z" 
    stroke="currentColor" stroke-width="1.5" stroke-linecap="round" stroke-linejoin="round" fill="none" />
<path d="M9.99999 11.6667C11.8409 11.6667 13.3333 10.1743 13.3333 8.33333C13.3333 6.49238 11.8409 5 9.99999 5C8.15904 5 6.66666 6.49238 6.66666 8.33333C6.66666 10.1743 8.15904 11.6667 9.99999 11.6667Z" 
    stroke="currentColor" stroke-width="1.5" stroke-linecap="round" stroke-linejoin="round" fill="none" />
<path d="M12.9166 8.33335H14.1666M9.99998 11.25V12.5M7.08331 8.33335H5.83331M9.99998 5.41669V4.16669" 
    stroke="currentColor" stroke-width="1.5" stroke-linecap="round" stroke-linejoin="round" fill="none" />
</symbol>
<symbol id="kitchen" viewBox="0 0 32 32">
<path d="M1 11.999c-0.15 0-0.297 0.034-0.432 0.098s-0.254 0.159-0.347 0.276c-0.094 0.117-0.16 0.253-0.194 0.399s-0.035 0.297-0.003 0.443l3.304 14.868c0.247 1.11 0.865 2.104 1.752 2.816s1.991 1.1 3.128 1.1h11.584c1.138-0 2.241-0.388 3.128-1.1s1.505-1.705 1.752-2.816l0.262-1.18c1.53 0.286 3.111-0.033 4.41-0.891s2.213-2.186 2.551-3.706 0.071-3.11-0.742-4.437c-0.814-1.327-2.111-2.286-3.618-2.674l0.442-1.98c0.032-0.146 0.032-0.298-0.003-0.443s-0.1-0.282-0.194-0.399c-0.094-0.117-0.212-0.211-0.347-0.276s-0.283-0.098-0.432-0.098h-26zM26 24.999c-0.212 0-0.423-0.017-0.632-0.050l1.734-7.796c0.925 0.268 1.722 0.86 2.246 1.669s0.738 1.778 0.604 2.732c-0.134 0.954-0.607 1.827-1.333 2.46s-1.656 0.983-2.619 0.985zM5.28 27.649l-3.034-13.65h23.508l-3.034 13.65c-0.148 0.666-0.519 1.262-1.051 1.69s-1.195 0.66-1.877 0.66h-11.584c-0.683-0-1.345-0.233-1.877-0.66s-0.903-1.023-1.051-1.69z"></path>
<path d="M8.8 1.599l-0.006 0.008-0.028 0.038c-0.146 0.2-0.282 0.407-0.408 0.62-0.107 0.171-0.202 0.349-0.282 0.534-0.052 0.12-0.068 0.184-0.074 0.206v0.008c0.023 0.177 0.085 0.346 0.182 0.496 0.15 0.266 0.356 0.544 0.616 0.89l0.020 0.024c0.236 0.316 0.52 0.694 0.74 1.086 0.224 0.4 0.44 0.91 0.44 1.49 0 0.376-0.13 0.736-0.238 0.988-0.116 0.268-0.251 0.527-0.404 0.776-0.157 0.262-0.326 0.517-0.506 0.764l-0.036 0.050-0.010 0.016-0.004 0.004c-0.159 0.212-0.396 0.353-0.658 0.391s-0.529-0.030-0.742-0.189c-0.212-0.159-0.353-0.396-0.391-0.658s0.030-0.529 0.189-0.742l0.006-0.008 0.028-0.038c0.146-0.2 0.282-0.407 0.408-0.62 0.107-0.171 0.202-0.349 0.282-0.534 0.052-0.12 0.068-0.184 0.074-0.206-0.021-0.179-0.083-0.352-0.18-0.504-0.186-0.31-0.392-0.608-0.618-0.89l-0.020-0.024c-0.27-0.345-0.517-0.708-0.74-1.086-0.272-0.451-0.424-0.964-0.44-1.49 0-0.376 0.13-0.736 0.238-0.988 0.118-0.276 0.268-0.548 0.404-0.776 0.159-0.261 0.328-0.516 0.506-0.764l0.050-0.070c0.159-0.212 0.396-0.353 0.658-0.391s0.529 0.030 0.742 0.189c0.212 0.159 0.353 0.396 0.391 0.658s-0.030 0.529-0.189 0.742zM14.8 1.599l-0.006 0.008-0.028 0.038c-0.146 0.2-0.282 0.407-0.408 0.62-0.107 0.171-0.202 0.349-0.282 0.534-0.052 0.12-0.068 0.184-0.074 0.206v0.008c0.023 0.177 0.085 0.346 0.182 0.496 0.15 0.266 0.356 0.544 0.616 0.89l0.020 0.024c0.236 0.316 0.52 0.694 0.74 1.086 0.224 0.4 0.44 0.91 0.44 1.49 0 0.376-0.13 0.736-0.238 0.988-0.116 0.268-0.251 0.527-0.404 0.776-0.157 0.262-0.326 0.517-0.506 0.764l-0.036 0.050-0.010 0.016-0.004 0.004c-0.159 0.212-0.396 0.353-0.658 0.391s-0.529-0.030-0.742-0.189c-0.212-0.159-0.353-0.396-0.391-0.658s0.030-0.529 0.189-0.742l0.006-0.008 0.028-0.038c0.146-0.2 0.282-0.407 0.408-0.62 0.107-0.171 0.202-0.349 0.282-0.534 0.052-0.12 0.068-0.184 0.074-0.206-0.021-0.179-0.083-0.352-0.18-0.504-0.186-0.31-0.392-0.608-0.618-0.89l-0.020-0.024c-0.27-0.345-0.517-0.708-0.74-1.086-0.272-0.451-0.424-0.964-0.44-1.49 0-0.376 0.13-0.736 0.238-0.988 0.118-0.276 0.268-0.548 0.404-0.776 0.159-0.261 0.328-0.516 0.506-0.764l0.050-0.070c0.159-0.212 0.396-0.353 0.658-0.391s0.529 0.030 0.742 0.189c0.212 0.159 0.353 0.396 0.391 0.658s-0.030 0.529-0.189 0.742zM20.8 1.599l-0.006 0.008-0.028 0.038c-0.146 0.2-0.282 0.407-0.408 0.62-0.107 0.171-0.202 0.349-0.282 0.534-0.052 0.12-0.068 0.184-0.074 0.206v0.008c0.023 0.177 0.085 0.346 0.182 0.496 0.15 0.266 0.356 0.544 0.616 0.89l0.020 0.024c0.236 0.316 0.52 0.694 0.74 1.086 0.224 0.4 0.44 0.91 0.44 1.49 0 0.376-0.13 0.736-0.238 0.988-0.116 0.268-0.251 0.527-0.404 0.776-0.156 0.262-0.324 0.517-0.504 0.764l-0.038 0.050-0.010 0.016-0.004 0.004c-0.159 0.212-0.396 0.353-0.658 0.391s-0.529-0.030-0.742-0.189c-0.212-0.159-0.353-0.396-0.391-0.658s0.030-0.529 0.189-0.742l0.006-0.008 0.028-0.038c0.145-0.2 0.282-0.407 0.408-0.62 0.107-0.171 0.201-0.349 0.282-0.534 0.052-0.12 0.068-0.184 0.074-0.206-0.021-0.179-0.083-0.352-0.18-0.504-0.186-0.31-0.392-0.608-0.618-0.89l-0.020-0.024c-0.27-0.345-0.517-0.708-0.74-1.086-0.272-0.451-0.424-0.964-0.44-1.49 0-0.376 0.13-0.736 0.238-0.988 0.118-0.276 0.268-0.548 0.404-0.776 0.159-0.261 0.328-0.516 0.506-0.764l0.050-0.070c0.159-0.212 0.396-0.353 0.658-0.391s0.529 0.030 0.742 0.189c0.212 0.159 0.353 0.396 0.391 0.658s-0.030 0.529-0.189 0.742z"></path>
</symbol>
<symbol id="heart" viewBox="0 0 37 32">
<path d="M18.286 11.968l-2.043-4.089c-0.507-1.013-1.387-2.469-2.633-3.646-1.225-1.159-2.693-1.947-4.466-1.947-3.831 0-6.857 3.031-6.857 6.674 0 2.768 1.266 4.722 4.27 7.703 0.77 0.763 1.648 1.589 2.619 2.498 2.533 2.377 5.682 5.335 9.111 9.289 3.429-3.954 6.578-6.912 9.111-9.289 0.971-0.91 1.851-1.737 2.619-2.498 3.003-2.981 4.27-4.935 4.27-7.703 0-3.643-3.026-6.674-6.857-6.674-1.776 0-3.241 0.789-4.466 1.947-1.246 1.177-2.126 2.633-2.633 3.646l-2.043 4.089zM19.182 30.921c-0.11 0.13-0.247 0.235-0.402 0.307s-0.323 0.109-0.494 0.109-0.339-0.037-0.494-0.109c-0.155-0.072-0.292-0.177-0.402-0.307-3.659-4.347-6.971-7.456-9.698-10.014-4.72-4.432-7.691-7.218-7.691-11.947 0-4.949 4.091-8.96 9.143-8.96 3.657 0 6.215 2.4 7.781 4.59 0.594 0.834 1.047 1.637 1.362 2.267 0.396-0.789 0.851-1.547 1.362-2.267 1.566-2.192 4.123-4.59 7.781-4.59 5.051 0 9.143 4.011 9.143 8.96 0 4.729-2.971 7.515-7.691 11.947-2.727 2.56-6.039 5.671-9.698 10.014z"></path>
</symbol>
<symbol id="map" viewBox="0 0 32 32">
<path d="M31.634 0.226c0.115 0.094 0.207 0.212 0.27 0.346s0.096 0.28 0.096 0.428v28c-0 0.231-0.080 0.455-0.227 0.634s-0.351 0.301-0.577 0.346l-10 2c-0.129 0.026-0.263 0.026-0.392 0l-9.804-1.96-9.804 1.96c-0.145 0.029-0.295 0.025-0.438-0.010s-0.277-0.103-0.392-0.197c-0.114-0.094-0.207-0.212-0.27-0.345s-0.096-0.28-0.096-0.428v-28c0-0.231 0.080-0.455 0.227-0.634s0.351-0.301 0.577-0.346l10-2c0.129-0.026 0.263-0.026 0.392 0l9.804 1.96 9.804-1.96c0.145-0.029 0.295-0.026 0.438 0.010s0.277 0.103 0.392 0.196zM20 3.82l-8-1.6v25.96l8 1.6v-25.96zM22 29.78l8-1.6v-25.96l-8 1.6v25.96zM10 28.18v-25.96l-8 1.6v25.96l8-1.6z"></path>
</symbol>
<symbol id="water" viewBox="0 0 20 20" xmlns="http://www.w3.org/2000/svg">
<g fill="none" stroke="currentColor" stroke-width="1.25" stroke-miterlimit="10">
    <path d="M15.625 12.5C15.625 15.952 13.452 18.125 10 18.125C6.54805 18.125 4.375 15.952 4.375 12.5C4.375 8.79571 8.40742 3.79492 9.64414 2.34844C9.68815 2.29705 9.74276 2.25579 9.80422 2.2275C9.86568 2.19922 9.93254 2.18457 10.0002 2.18457C10.0679 2.18457 10.1347 2.19922 10.1962 2.2275C10.2576 2.25579 10.3122 2.29705 10.3562 2.34844C11.5926 3.79492 15.625 8.79571 15.625 12.5Z" />
    <path d="M13.4375 12.8125C13.4375 13.5584 13.1412 14.2738 12.6137 14.8012C12.0863 15.3287 11.3709 15.625 10.625 15.625" stroke-linecap="round" stroke-linejoin="round" />
</g>
</symbol>
<symbol id="burger" viewBox="0 0 24 24">
<path d="M4 6.5h16a1 1 0 1 0 0-2H4a1 1 0 1 0 0 2Zm16 4.5H4a1 1 0 1 0 0 2h16a1 1 0 1 0 0-2Zm0 6.5H4a1 1 0 1 0 0 2h16a1 1 0 1 0 0-2Z"/>
</symbol>
<symbol id="close-menu" viewBox="0 0 24 24">
<path d="M18.3 5.7a1 1 0 0 0-1.4 0L12 10.6 7.1 5.7A1 1 0 0 0 5.7 7.1l4.9 4.9-4.9 4.9a1 1 0 1 0 1.4 1.4l4.9-4.9 4.9 4.9a1 1 0 0 0 1.4-1.4L13.4 12l4.9-4.9a1 1 0 0 0 0-1.4Z"/>
</symbol>
<symbol id="microwave" viewBox="0 0 20 20" xmlns="http://www.w3.org/2000/svg">
<g fill="none" stroke="currentColor" stroke-width="1.25" stroke-linecap="round" stroke-linejoin="round">
    <path d="M16.6667 3.33331H3.33335C2.41288 3.33331 1.66669 4.07951 1.66669 4.99998V14.1666C1.66669 15.0871 2.41288 15.8333 3.33335 15.8333H16.6667C17.5872 15.8333 18.3334 15.0871 18.3334 14.1666V4.99998C18.3334 4.07951 17.5872 3.33331 16.6667 3.33331Z" />
    <path d="M10.8333 6.66669H5.83333C5.3731 6.66669 5 7.03978 5 7.50002V11.6667C5 12.1269 5.3731 12.5 5.83333 12.5H10.8333C11.2936 12.5 11.6667 12.1269 11.6667 11.6667V7.50002C11.6667 7.03978 11.2936 6.66669 10.8333 6.66669Z" />
    <path d="M15 6.66669V12.5M5 15.8334V17.5M15 15.8334V17.5" />
</g>
</symbol>
<symbol id="rating-star" viewBox="0 0 34 32">
<path 
    fill="currentColor" 
    d="M15.195 0.61c0.429-0.813 1.593-0.813 2.022 0l4.316 8.18c0.165 0.313 0.467 0.532 0.816 0.593l9.114 1.577c0.905 0.157 1.265 1.264 0.625 1.923l-6.446 6.633c-0.247 0.254-0.362 0.608-0.312 0.959l1.317 9.155c0.131 0.91-0.811 1.594-1.635 1.188l-8.3-4.081c-0.318-0.156-0.691-0.156-1.009 0l-8.3 4.081c-0.825 0.405-1.766-0.279-1.636-1.188l1.317-9.155c0.050-0.351-0.065-0.705-0.312-0.959l-6.446-6.633c-0.64-0.659-0.281-1.766 0.625-1.923l9.114-1.577c0.349-0.060 0.651-0.279 0.816-0.593l4.316-8.18z"
></path>
</symbol>
<symbol id="refrigerator" viewBox="0 0 27 32">
<path d="M13.046 0h-0.166c-2.723 0-4.88 0-6.567 0.227-1.736 0.234-3.142 0.726-4.252 1.834-1.108 1.11-1.6 2.516-1.834 4.252-0.227 1.689-0.227 3.844-0.227 6.567v4.61c0 2.723 0 4.88 0.227 6.567 0.234 1.736 0.726 3.142 1.834 4.252 0.681 0.68 1.473 1.127 2.384 1.427v1.004c0 0.613 0.498 1.111 1.111 1.111h1.481c0.295 0 0.577-0.117 0.786-0.326s0.325-0.491 0.325-0.786v-0.439c1.344 0.068 2.911 0.068 4.732 0.068h0.166c1.822 0 3.388 0 4.732-0.068v0.439c0 0.613 0.498 1.111 1.111 1.111h1.481c0.295 0 0.577-0.117 0.786-0.326s0.325-0.491 0.325-0.786v-1.004c0.911-0.299 1.704-0.747 2.384-1.427 1.108-1.11 1.6-2.516 1.834-4.252 0.227-1.689 0.227-3.844 0.227-6.567v-4.609c0-2.723 0-4.88-0.227-6.567-0.234-1.736-0.726-3.142-1.834-4.252-1.11-1.108-2.516-1.6-4.252-1.834-1.689-0.227-3.844-0.227-6.567-0.227zM3.633 3.633c0.627-0.627 1.486-1.003 2.976-1.203 1.523-0.204 3.529-0.207 6.354-0.207s4.833 0.003 6.356 0.207c1.489 0.2 2.348 0.576 2.975 1.203s1.003 1.486 1.203 2.976c0.204 1.523 0.207 3.529 0.207 6.354v1.111h-21.481v-1.111c0-2.825 0.003-4.831 0.207-6.356 0.2-1.489 0.576-2.348 1.203-2.975zM2.222 16.296h21.481v1.111c0 2.825-0.003 4.833-0.207 6.356-0.2 1.489-0.576 2.348-1.203 2.975s-1.486 1.003-2.976 1.203c-1.523 0.204-3.529 0.207-6.354 0.207s-4.831-0.003-6.356-0.207c-1.489-0.2-2.348-0.576-2.975-1.203s-1.003-1.486-1.203-2.976c-0.204-1.521-0.207-3.529-0.207-6.354v-1.111z"></path>
</symbol>

<symbol id="star-full" viewBox="0 0 34 32">
<path fill="#ffc531" style="fill: var(--color1, #ffc531)" d="M15.195 0.61c0.429-0.813 1.593-0.813 2.022 0l4.316 8.18c0.165 0.313 0.467 0.532 0.816 0.593l9.114 1.577c0.905 0.157 1.265 1.264 0.625 1.923l-6.446 6.633c-0.247 0.254-0.362 0.608-0.312 0.959l1.317 9.155c0.131 0.91-0.811 1.594-1.635 1.188l-8.3-4.081c-0.318-0.156-0.691-0.156-1.009 0l-8.3 4.081c-0.825 0.405-1.766-0.279-1.636-1.188l1.317-9.155c0.050-0.351-0.065-0.705-0.312-0.959l-6.446-6.633c-0.64-0.659-0.281-1.766 0.625-1.923l9.114-1.577c0.349-0.060 0.651-0.279 0.816-0.593l4.316-8.18z"></path>
</symbol>
<symbol id="tv" viewBox="0 0 32 32">
<path d="M0 8c0 0 0-4 4-4h24c0 0 4 0 4 4v12c0 0 0 4-4 4h-8c0 1.333 0.167 2.333 0.5 3h1.5c0.265 0 0.52 0.105 0.707 0.293s0.293 0.442 0.293 0.707c0 0.265-0.105 0.52-0.293 0.707s-0.442 0.293-0.707 0.293h-12c-0.265 0-0.52-0.105-0.707-0.293s-0.293-0.442-0.293-0.707c0-0.265 0.105-0.52 0.293-0.707s0.442-0.293 0.707-0.293h1.5c0.333-0.667 0.5-1.667 0.5-3h-8c0 0-4 0-4-4v-12zM2.796 6.29c-0.22 0.153-0.395 0.361-0.508 0.604-0.168 0.353-0.266 0.735-0.288 1.126v11.98c0 0.65 0.156 1.004 0.29 1.204 0.14 0.208 0.341 0.377 0.604 0.508 0.338 0.162 0.703 0.259 1.076 0.286l0.050 0.002h23.98c0.65 0 1.004-0.156 1.204-0.29 0.22-0.153 0.395-0.361 0.508-0.604 0.162-0.338 0.259-0.703 0.286-1.076l0.002-0.050v-11.98c0-0.65-0.156-1.004-0.29-1.204-0.153-0.22-0.361-0.395-0.604-0.508-0.353-0.168-0.736-0.266-1.126-0.288h-23.98c-0.65 0-1.004 0.156-1.204 0.29z"></path>
</symbol>
<symbol id="radio" viewBox="0 0 32 32">
<path d="M14 5c0-0.265 0.105-0.52 0.293-0.707s0.442-0.293 0.707-0.293h14c0.265 0 0.52 0.105 0.707 0.293s0.293 0.442 0.293 0.707v2c0 0.265-0.105 0.52-0.293 0.707s-0.442 0.293-0.707 0.293h-14c-0.265 0-0.52-0.105-0.707-0.293s-0.293-0.442-0.293-0.707v-2zM0 24c0-1.591 0.632-3.117 1.757-4.243s2.651-1.757 4.243-1.757 3.117 0.632 4.243 1.757c1.125 1.125 1.757 2.651 1.757 4.243s-0.632 3.117-1.757 4.243c-1.125 1.125-2.651 1.757-4.243 1.757s-3.117-0.632-4.243-1.757c-1.125-1.125-1.757-2.651-1.757-4.243zM14 21c0-0.265 0.105-0.52 0.293-0.707s0.442-0.293 0.707-0.293h14c0.265 0 0.52 0.105 0.707 0.293s0.293 0.442 0.293 0.707v2c0 0.265-0.105 0.52-0.293 0.707s-0.442 0.293-0.707 0.293h-14c-0.265 0-0.52-0.105-0.707-0.293s-0.293-0.442-0.293-0.707v-2zM14 11c0-0.265 0.105-0.52 0.293-0.707s0.442-0.293 0.707-0.293h10c0.265 0 0.52 0.105 0.707 0.293s0.293 0.442 0.293 0.707-0.105 0.52-0.293 0.707c-0.188 0.188-0.442 0.293-0.707 0.293h-10c-0.265 0-0.52-0.105-0.707-0.293s-0.293-0.442-0.293-0.707zM14 27c0-0.265 0.105-0.52 0.293-0.707s0.442-0.293 0.707-0.293h10c0.265 0 0.52 0.105 0.707 0.293s0.293 0.442 0.293 0.707-0.105 0.52-0.293 0.707c-0.188 0.188-0.442 0.293-0.707 0.293h-10c-0.265 0-0.52-0.105-0.707-0.293s-0.293-0.442-0.293-0.707zM6 2c-0.788 0-1.568 0.155-2.296 0.457s-1.389 0.744-1.947 1.301c-0.557 0.557-0.999 1.219-1.301 1.947s-0.457 1.508-0.457 2.296c0 0.788 0.155 1.568 0.457 2.296s0.744 1.389 1.301 1.947c0.557 0.557 1.219 0.999 1.947 1.301s1.508 0.457 2.296 0.457c1.591 0 3.117-0.632 4.243-1.757s1.757-2.651 1.757-4.243c0-1.591-0.632-3.117-1.757-4.243s-2.651-1.757-4.243-1.757zM6 11c-0.796 0-1.559-0.316-2.121-0.879s-0.879-1.326-0.879-2.121c0-0.796 0.316-1.559 0.879-2.121s1.326-0.879 2.121-0.879c0.796 0 1.559 0.316 2.121 0.879s0.879 1.326 0.879 2.121c0 0.796-0.316 1.559-0.879 2.121s-1.326 0.879-2.121 0.879z"></path>
</symbol>
<symbol id="star" viewBox="0 0 34 32">
<path d="M9.382 26.314l6.829-4.082 6.829 4.127-1.835-7.731 6.006-5.227-7.919-0.69-3.081-7.296-3.081 7.263-7.919 0.679 6.006 5.216-1.835 7.741zM16.211 25.758l-8.288 4.999c-0.279 0.169-0.57 0.245-0.872 0.227s-0.571-0.112-0.807-0.282c-0.236-0.169-0.411-0.388-0.525-0.657s-0.138-0.572-0.072-0.911l2.188-9.444-7.31-6.377c-0.265-0.228-0.428-0.486-0.486-0.774s-0.051-0.567 0.022-0.84c0.066-0.273 0.219-0.503 0.459-0.69s0.528-0.297 0.867-0.326l9.665-0.844 3.744-8.921c0.133-0.309 0.334-0.539 0.603-0.69s0.539-0.227 0.812-0.227 0.543 0.076 0.812 0.227c0.269 0.151 0.47 0.381 0.603 0.69l3.744 8.921 9.676 0.844c0.332 0.030 0.617 0.138 0.857 0.326s0.392 0.418 0.459 0.69c0.073 0.273 0.081 0.552 0.022 0.84s-0.221 0.545-0.486 0.774l-7.31 6.377 2.188 9.444c0.066 0.339 0.042 0.643-0.072 0.911s-0.289 0.488-0.525 0.657c-0.236 0.169-0.505 0.263-0.807 0.282s-0.593-0.057-0.873-0.227l-8.288-4.999z"></path>
</symbol>
<symbol id="alcove" viewBox="0 0 32 32">
<path d="M8 4v4h-4v-4h4zM10 28v-4c0-0.53-0.211-1.039-0.586-1.414s-0.884-0.586-1.414-0.586h-4c-0.53 0-1.039 0.211-1.414 0.586s-0.586 0.884-0.586 1.414v4c0 0.53 0.211 1.039 0.586 1.414s0.884 0.586 1.414 0.586h4c0.53 0 1.039-0.211 1.414-0.586s0.586-0.884 0.586-1.414zM10 18v-4c0-0.53-0.211-1.039-0.586-1.414s-0.884-0.586-1.414-0.586h-4c-0.53 0-1.039 0.211-1.414 0.586s-0.586 0.884-0.586 1.414v4c0 0.53 0.211 1.039 0.586 1.414s0.884 0.586 1.414 0.586h4c0.53 0 1.039-0.211 1.414-0.586s0.586-0.884 0.586-1.414zM10 8v-4c0-0.53-0.211-1.039-0.586-1.414s-0.884-0.586-1.414-0.586h-4c-0.53 0-1.039 0.211-1.414 0.586s-0.586 0.884-0.586 1.414v4c0 0.53 0.211 1.039 0.586 1.414s0.884 0.586 1.414 0.586h4c0.53 0 1.039-0.211 1.414-0.586s0.586-0.884 0.586-1.414zM20 28v-4c0-0.53-0.211-1.039-0.586-1.414s-0.884-0.586-1.414-0.586h-4c-0.53 0-1.039 0.211-1.414 0.586s-0.586 0.884-0.586 1.414v4c0 0.53 0.211 1.039 0.586 1.414s0.884 0.586 1.414 0.586h4c0.53 0 1.039-0.211 1.414-0.586s0.586-0.884 0.586-1.414zM20 18v-4c0-0.53-0.211-1.039-0.586-1.414s-0.884-0.586-1.414-0.586h-4c-0.53 0-1.039 0.211-1.414 0.586s-0.586 0.884-0.586 1.414v4c0 0.53 0.211 1.039 0.586 1.414s0.884 0.586 1.414 0.586h4c0.53 0 1.039-0.211 1.414-0.586s0.586-0.884 0.586-1.414zM20 8v-4c0-0.53-0.211-1.039-0.586-1.414s-0.884-0.586-1.414-0.586h-4c-0.53 0-1.039 0.211-1.414 0.586s-0.586 0.884-0.586 1.414v4c0 0.53 0.211 1.039 0.586 1.414s0.884 0.586 1.414 0.586h4c0.53 0 1.039-0.211 1.414-0.586s0.586-0.884 0.586-1.414zM18 4v4h-4v-4h4zM28 4v4h-4v-4h4zM8 14v4h-4v-4h4zM18 14v4h-4v-4h4zM28 14h-4v4h4v-4zM8 24v4h-4v-4h4zM18 24v4h-4v-4h4zM28 24v4h-4v-4h4zM24 2c-0.53 0-1.039 0.211-1.414 0.586s-0.586 0.884-0.586 1.414v4c0 0.53 0.211 1.039 0.586 1.414s0.884 0.586 1.414 0.586h4c0.53 0 1.039-0.211 1.414-0.586s0.586-0.884 0.586-1.414v-4c0-0.53-0.211-1.039-0.586-1.414s-0.884-0.586-1.414-0.586h-4zM22 14c0-0.53 0.211-1.039 0.586-1.414s0.884-0.586 1.414-0.586h4c0.53 0 1.039 0.211 1.414 0.586s0.586 0.884 0.586 1.414v4c0 0.53-0.211 1.039-0.586 1.414s-0.884 0.586-1.414 0.586h-4c-0.53 0-1.039-0.211-1.414-0.586s-0.586-0.884-0.586-1.414v-4zM24 22c-0.53 0-1.039 0.211-1.414 0.586s-0.586 0.884-0.586 1.414v4c0 0.53 0.211 1.039 0.586 1.414s0.884 0.586 1.414 0.586h4c0.53 0 1.039-0.211 1.414-0.586s0.586-0.884 0.586-1.414v-4c0-0.53-0.211-1.039-0.586-1.414s-0.884-0.586-1.414-0.586h-4z"></path>
</symbol>
<symbol id="fully-integrated" viewBox="0 0 32 32">
<path d="M2 5c0-0.796 0.316-1.559 0.879-2.121s1.326-0.879 2.121-0.879h6c0.796 0 1.559 0.316 2.121 0.879s0.879 1.326 0.879 2.121v6c0 0.796-0.316 1.559-0.879 2.121s-1.326 0.879-2.121 0.879h-6c-0.796 0-1.559-0.316-2.121-0.879s-0.879-1.326-0.879-2.121v-6zM5 4c-0.265 0-0.52 0.105-0.707 0.293s-0.293 0.442-0.293 0.707v6c0 0.265 0.105 0.52 0.293 0.707s0.442 0.293 0.707 0.293h6c0.265 0 0.52-0.105 0.707-0.293s0.293-0.442 0.293-0.707v-6c0-0.265-0.105-0.52-0.293-0.707s-0.442-0.293-0.707-0.293h-6zM18 5c0-0.796 0.316-1.559 0.879-2.121s1.326-0.879 2.121-0.879h6c0.796 0 1.559 0.316 2.121 0.879s0.879 1.326 0.879 2.121v6c0 0.796-0.316 1.559-0.879 2.121s-1.326 0.879-2.121 0.879h-6c-0.796 0-1.559-0.316-2.121-0.879s-0.879-1.326-0.879-2.121v-6zM21 4c-0.265 0-0.52 0.105-0.707 0.293s-0.293 0.442-0.293 0.707v6c0 0.265 0.105 0.52 0.293 0.707s0.442 0.293 0.707 0.293h6c0.265 0 0.52-0.105 0.707-0.293s0.293-0.442 0.293-0.707v-6c0-0.265-0.105-0.52-0.293-0.707s-0.442-0.293-0.707-0.293h-6zM2 21c0-0.796 0.316-1.559 0.879-2.121s1.326-0.879 2.121-0.879h6c0.796 0 1.559 0.316 2.121 0.879s0.879 1.326 0.879 2.121v6c0 0.796-0.316 1.559-0.879 2.121s-1.326 0.879-2.121 0.879h-6c-0.796 0-1.559-0.316-2.121-0.879s-0.879-1.326-0.879-2.121v-6zM5 20c-0.265 0-0.52 0.105-0.707 0.293s-0.293 0.442-0.293 0.707v6c0 0.265 0.105 0.52 0.293 0.707s0.442 0.293 0.707 0.293h6c0.265 0 0.52-0.105 0.707-0.293s0.293-0.442 0.293-0.707v-6c0-0.265-0.105-0.52-0.293-0.707s-0.442-0.293-0.707-0.293h-6zM18 21c0-0.796 0.316-1.559 0.879-2.121s1.326-0.879 2.121-0.879h6c0.796 0 1.559 0.316 2.121 0.879s0.879 1.326 0.879 2.121v6c0 0.796-0.316 1.559-0.879 2.121s-1.326 0.879-2.121 0.879h-6c-0.796 0-1.559-0.316-2.121-0.879s-0.879-1.326-0.879-2.121v-6zM21 20c-0.265 0-0.52 0.105-0.707 0.293s-0.293 0.442-0.293 0.707v6c0 0.265 0.105 0.52 0.293 0.707s0.442 0.293 0.707 0.293h6c0.265 0 0.52-0.105 0.707-0.293s0.293-0.442 0.293-0.707v-6c0-0.265-0.105-0.52-0.293-0.707s-0.442-0.293-0.707-0.293h-6z"></path>
</symbol>
<symbol id="van" viewBox="0 0 32 32">
<path d="M12 2h-10v28h10v-28zM30 2h-10v10h10v-10zM30 20v10h-10v-10h10zM0 2c0-0.53 0.211-1.039 0.586-1.414s0.884-0.586 1.414-0.586h10c0.53 0 1.039 0.211 1.414 0.586s0.586 0.884 0.586 1.414v28c0 0.53-0.211 1.039-0.586 1.414s-0.884 0.586-1.414 0.586h-10c-0.53 0-1.039-0.211-1.414-0.586s-0.586-0.884-0.586-1.414v-28zM18 2c0-0.53 0.211-1.039 0.586-1.414s0.884-0.586 1.414-0.586h10c0.53 0 1.039 0.211 1.414 0.586s0.586 0.884 0.586 1.414v10c0 0.53-0.211 1.039-0.586 1.414s-0.884 0.586-1.414 0.586h-10c-0.53 0-1.039-0.211-1.414-0.586s-0.586-0.884-0.586-1.414v-10zM20 18c-0.53 0-1.039 0.211-1.414 0.586s-0.586 0.884-0.586 1.414v10c0 0.53 0.211 1.039 0.586 1.414s0.884 0.586 1.414 0.586h10c0.53 0 1.039-0.211 1.414-0.586s0.586-0.884 0.586-1.414v-10c0-0.53-0.211-1.039-0.586-1.414s-0.884-0.586-1.414-0.586h-10z"></path>
</symbol>
</defs>
</svg>
